COMMENT vga
STARTFONT 2.1
COMMENT This font was automatically resized by bdfresize-1.5
COMMENT   mag_x = 2/1, mag_y = 2/1, blackness = 1
FONT vga
SIZE 28 75 75
FONTBOUNDINGBOX 16 28 0 -8
STARTPROPERTIES 4
FONT_DESCENT 8
FONT_ASCENT 20
AVERAGE_WIDTH 160
DEFAULT_CHAR 0
ENDPROPERTIES
CHARS 189
STARTCHAR u0020
ENCODING 32
SWIDTH 1332 0
DWIDTH 16 0
BBX 16 28 0 -8
BITMAP
0000
0000
0000
0000
0000
0000
0000
0000
0000
0000
0000
0000
0000
0000
0000
0000
0000
0000
0000
0000
0000
0000
0000
0000
0000
0000
0000
0000
ENDCHAR
STARTCHAR u005A
ENCODING 90
SWIDTH 1332 0
DWIDTH 16 0
BBX 16 28 0 -8
BITMAP
0000
0000
0000
0000
3FFF
3FFF
3C0F
3C0F
303C
303C
00F0
00F0
03C0
03C0
0F00
0F00
3C03
3C03
3C0F
3C0F
3FFF
3FFF
0000
0000
0000
0000
0000
0000
ENDCHAR
STARTCHAR u0076
ENCODING 118
SWIDTH 1332 0
DWIDTH 16 0
BBX 16 28 0 -8
BITMAP
0000
0000
0000
0000
0000
0000
0000
0000
0000
0000
3C0F
3C0F
3C0F
3C0F
3C0F
3C0F
3C0F
3C0F
0F3C
0F3C
03F0
03F0
0000
0000
0000
0000
0000
0000
ENDCHAR
STARTCHAR u0047
ENCODING 71
SWIDTH 1332 0
DWIDTH 16 0
BBX 16 28 0 -8
BITMAP
0000
0000
0000
0000
03FC
03FC
0F0F
0F0F
3C03
3C03
3C00
3C00
3C00
3C00
3CFF
3CFF
3C0F
3C0F
0F0F
0F0F
03F3
03F3
0000
0000
0000
0000
0000
0000
ENDCHAR
STARTCHAR u0066
ENCODING 102
SWIDTH 1332 0
DWIDTH 16 0
BBX 16 28 0 -8
BITMAP
0000
0000
0000
0000
03F0
03F0
0F3C
0F3C
0F0C
0F0C
0F00
0F00
3FF0
3FF0
0F00
0F00
0F00
0F00
0F00
0F00
3FC0
3FC0
0000
0000
0000
0000
0000
0000
ENDCHAR
STARTCHAR u05D0
ENCODING 1488
SWIDTH 1332 0
DWIDTH 16 0
BBX 16 28 0 -8
BITMAP
0000
0000
0000
0000
0000
0000
3C0F
3C0F
3C0F
3C0F
0F0F
0F0F
0FCF
0FCF
3CFC
3CFC
3C3C
3C3C
3C0F
3C0F
3C0F
3C0F
0000
0000
0000
0000
0000
0000
ENDCHAR
STARTCHAR u25CB
ENCODING 9675
SWIDTH 1332 0
DWIDTH 16 0
BBX 16 28 0 -8
BITMAP
0000
0000
0000
0000
0000
0000
0000
0000
0FF0
0FF0
3C3C
3C3C
300C
300C
300C
300C
3C3C
3C3C
0FF0
0FF0
0000
0000
0000
0000
0000
0000
0000
0000
ENDCHAR
STARTCHAR u007D
ENCODING 125
SWIDTH 1332 0
DWIDTH 16 0
BBX 16 28 0 -8
BITMAP
0000
0000
0000
0000
3F00
3F00
03C0
03C0
03C0
03C0
03C0
03C0
00FC
00FC
03C0
03C0
03C0
03C0
03C0
03C0
3F00
3F00
0000
0000
0000
0000
0000
0000
ENDCHAR
STARTCHAR u002C
ENCODING 44
SWIDTH 1332 0
DWIDTH 16 0
BBX 16 28 0 -8
BITMAP
0000
0000
0000
0000
0000
0000
0000
0000
0000
0000
0000
0000
0000
0000
0000
0000
03C0
03C0
03C0
03C0
03C0
03C0
0F00
0F00
0000
0000
0000
0000
ENDCHAR
STARTCHAR u0037
ENCODING 55
SWIDTH 1332 0
DWIDTH 16 0
BBX 16 28 0 -8
BITMAP
0000
0000
0000
0000
3FFF
3FFF
3C0F
3C0F
000F
000F
003C
003C
00F0
00F0
03C0
03C0
03C0
03C0
03C0
03C0
03C0
03C0
0000
0000
0000
0000
0000
0000
ENDCHAR
STARTCHAR u0054
ENCODING 84
SWIDTH 1332 0
DWIDTH 16 0
BBX 16 28 0 -8
BITMAP
0000
0000
0000
0000
3FFC
3FFC
3FFC
3FFC
33CC
33CC
03C0
03C0
03C0
03C0
03C0
03C0
03C0
03C0
03C0
03C0
0FF0
0FF0
0000
0000
0000
0000
0000
0000
ENDCHAR
STARTCHAR u00BE
ENCODING 190
SWIDTH 1332 0
DWIDTH 16 0
BBX 16 28 0 -8
BITMAP
0000
0000
FC00
FC00
0F00
0F00
3C0F
3C0F
0F3C
0F3C
FCF0
FCF0
03C0
03C0
0F3C
0F3C
3CFC
3CFC
F3CC
F3CC
0FFF
0FFF
003C
003C
003C
003C
0000
0000
ENDCHAR
STARTCHAR u05DB
ENCODING 1499
SWIDTH 1332 0
DWIDTH 16 0
BBX 16 28 0 -8
BITMAP
0000
0000
0000
0000
0000
0000
3FFC
3FFC
000F
000F
000F
000F
000F
000F
000F
000F
000F
000F
003C
003C
3FF0
3FF0
0000
0000
0000
0000
0000
0000
ENDCHAR
STARTCHAR u05D2
ENCODING 1490
SWIDTH 1332 0
DWIDTH 16 0
BBX 16 28 0 -8
BITMAP
0000
0000
0000
0000
0000
0000
03F0
03F0
003C
003C
003C
003C
003C
003C
003C
003C
03FC
03FC
0F3C
0F3C
3C0F
3C0F
0000
0000
0000
0000
0000
0000
ENDCHAR
STARTCHAR u005F
ENCODING 95
SWIDTH 1332 0
DWIDTH 16 0
BBX 16 28 0 -8
BITMAP
0000
0000
0000
0000
0000
0000
0000
0000
0000
0000
0000
0000
0000
0000
0000
0000
0000
0000
0000
0000
0000
0000
0000
0000
FFFF
FFFF
0000
0000
ENDCHAR
STARTCHAR u0039
ENCODING 57
SWIDTH 1332 0
DWIDTH 16 0
BBX 16 28 0 -8
BITMAP
0000
0000
0000
0000
0FFC
0FFC
3C0F
3C0F
3C0F
3C0F
3C0F
3C0F
0FFF
0FFF
000F
000F
000F
000F
003C
003C
0FF0
0FF0
0000
0000
0000
0000
0000
0000
ENDCHAR
STARTCHAR u266C
ENCODING 9836
SWIDTH 1332 0
DWIDTH 16 0
BBX 16 28 0 -8
BITMAP
0000
0000
0000
0000
3FFF
3FFF
3C0F
3C0F
3FFF
3FFF
3C0F
3C0F
3C0F
3C0F
3C0F
3C0F
3C3F
3C3F
FC3F
FC3F
FC3C
FC3C
F000
F000
0000
0000
0000
0000
ENDCHAR
STARTCHAR u00A3
ENCODING 163
SWIDTH 1332 0
DWIDTH 16 0
BBX 16 28 0 -8
BITMAP
0000
0000
03F0
03F0
0F3C
0F3C
0F0C
0F0C
0F00
0F00
3FC0
3FC0
0F00
0F00
0F00
0F00
0F00
0F00
3F0F
3F0F
3FFC
3FFC
0000
0000
0000
0000
0000
0000
ENDCHAR
STARTCHAR u006D
ENCODING 109
SWIDTH 1332 0
DWIDTH 16 0
BBX 16 28 0 -8
BITMAP
0000
0000
0000
0000
0000
0000
0000
0000
0000
0000
3F3C
3F3C
3FFF
3FFF
3CCF
3CCF
3CCF
3CCF
3CCF
3CCF
3CCF
3CCF
0000
0000
0000
0000
0000
0000
ENDCHAR
STARTCHAR u2190
ENCODING 8592
SWIDTH 1332 0
DWIDTH 16 0
BBX 16 28 0 -8
BITMAP
0000
0000
0000
0000
0000
0000
0000
0000
03C0
03C0
0F00
0F00
3FFF
3FFF
0F00
0F00
03C0
03C0
0000
0000
0000
0000
0000
0000
0000
0000
0000
0000
ENDCHAR
STARTCHAR u0059
ENCODING 89
SWIDTH 1332 0
DWIDTH 16 0
BBX 16 28 0 -8
BITMAP
0000
0000
0000
0000
3C3C
3C3C
3C3C
3C3C
3C3C
3C3C
3C3C
3C3C
0FF0
0FF0
03C0
03C0
03C0
03C0
03C0
03C0
0FF0
0FF0
0000
0000
0000
0000
0000
0000
ENDCHAR
STARTCHAR u263C
ENCODING 9788
SWIDTH 1332 0
DWIDTH 16 0
BBX 16 28 0 -8
BITMAP
0000
0000
0000
0000
03C0
03C0
03C0
03C0
F3CF
F3CF
0FF0
0FF0
FC3F
FC3F
0FF0
0FF0
F3CF
F3CF
03C0
03C0
03C0
03C0
0000
0000
0000
0000
0000
0000
ENDCHAR
STARTCHAR u2666
ENCODING 9830
SWIDTH 1332 0
DWIDTH 16 0
BBX 16 28 0 -8
BITMAP
0000
0000
0000
0000
0000
0000
00C0
00C0
03F0
03F0
0FFC
0FFC
3FFF
3FFF
0FFC
0FFC
03F0
03F0
00C0
00C0
0000
0000
0000
0000
0000
0000
0000
0000
ENDCHAR
STARTCHAR u0023
ENCODING 35
SWIDTH 1332 0
DWIDTH 16 0
BBX 16 28 0 -8
BITMAP
0000
0000
0000
0000
0F3C
0F3C
0F3C
0F3C
3FFF
3FFF
0F3C
0F3C
0F3C
0F3C
0F3C
0F3C
3FFF
3FFF
0F3C
0F3C
0F3C
0F3C
0000
0000
0000
0000
0000
0000
ENDCHAR
STARTCHAR u05E3
ENCODING 1507
SWIDTH 1332 0
DWIDTH 16 0
BBX 16 28 0 -8
BITMAP
0000
0000
0000
0000
0000
0000
3FF0
3FF0
0C3C
0C3C
3C3C
3C3C
3F3C
3F3C
003C
003C
003C
003C
003C
003C
003C
003C
003C
003C
003F
003F
0000
0000
ENDCHAR
STARTCHAR u004E
ENCODING 78
SWIDTH 1332 0
DWIDTH 16 0
BBX 16 28 0 -8
BITMAP
0000
0000
0000
0000
3C0F
3C0F
3F0F
3F0F
3FCF
3FCF
3FFF
3FFF
3CFF
3CFF
3C3F
3C3F
3C0F
3C0F
3C0F
3C0F
3C0F
3C0F
0000
0000
0000
0000
0000
0000
ENDCHAR
STARTCHAR u2665
ENCODING 9829
SWIDTH 1332 0
DWIDTH 16 0
BBX 16 28 0 -8
BITMAP
0000
0000
0000
0000
0000
0000
0F3C
0F3C
3FFF
3FFF
3FFF
3FFF
3FFF
3FFF
3FFF
3FFF
0FFC
0FFC
03F0
03F0
00C0
00C0
0000
0000
0000
0000
0000
0000
ENDCHAR
STARTCHAR u005D
ENCODING 93
SWIDTH 1332 0
DWIDTH 16 0
BBX 16 28 0 -8
BITMAP
0000
0000
0000
0000
0FF0
0FF0
00F0
00F0
00F0
00F0
00F0
00F0
00F0
00F0
00F0
00F0
00F0
00F0
00F0
00F0
0FF0
0FF0
0000
0000
0000
0000
0000
0000
ENDCHAR
STARTCHAR u006A
ENCODING 106
SWIDTH 1332 0
DWIDTH 16 0
BBX 16 28 0 -8
BITMAP
0000
0000
0000
0000
003C
003C
003C
003C
0000
0000
00FC
00FC
003C
003C
003C
003C
003C
003C
003C
003C
3C3C
3C3C
3C3C
3C3C
0FF0
0FF0
0000
0000
ENDCHAR
STARTCHAR u0041
ENCODING 65
SWIDTH 1332 0
DWIDTH 16 0
BBX 16 28 0 -8
BITMAP
0000
0000
0000
0000
00C0
00C0
03F0
03F0
0F3C
0F3C
3C0F
3C0F
3C0F
3C0F
3FFF
3FFF
3C0F
3C0F
3C0F
3C0F
3C0F
3C0F
0000
0000
0000
0000
0000
0000
ENDCHAR
STARTCHAR u266A
ENCODING 9834
SWIDTH 1332 0
DWIDTH 16 0
BBX 16 28 0 -8
BITMAP
0000
0000
0000
0000
0FFF
0FFF
0F0F
0F0F
0FFF
0FFF
0F00
0F00
0F00
0F00
0F00
0F00
3F00
3F00
FF00
FF00
FC00
FC00
0000
0000
0000
0000
0000
0000
ENDCHAR
STARTCHAR u2193
ENCODING 8595
SWIDTH 1332 0
DWIDTH 16 0
BBX 16 28 0 -8
BITMAP
0000
0000
0000
0000
03C0
03C0
03C0
03C0
03C0
03C0
03C0
03C0
03C0
03C0
03C0
03C0
3FFC
3FFC
0FF0
0FF0
03C0
03C0
0000
0000
0000
0000
0000
0000
ENDCHAR
STARTCHAR u0072
ENCODING 114
SWIDTH 1332 0
DWIDTH 16 0
BBX 16 28 0 -8
BITMAP
0000
0000
0000
0000
0000
0000
0000
0000
0000
0000
3CFC
3CFC
0FCF
0FCF
0F0F
0F0F
0F00
0F00
0F00
0F00
3FC0
3FC0
0000
0000
0000
0000
0000
0000
ENDCHAR
STARTCHAR u003A
ENCODING 58
SWIDTH 1332 0
DWIDTH 16 0
BBX 16 28 0 -8
BITMAP
0000
0000
0000
0000
0000
0000
03C0
03C0
03C0
03C0
0000
0000
0000
0000
0000
0000
03C0
03C0
03C0
03C0
0000
0000
0000
0000
0000
0000
0000
0000
ENDCHAR
STARTCHAR u0051
ENCODING 81
SWIDTH 1332 0
DWIDTH 16 0
BBX 16 28 0 -8
BITMAP
0000
0000
0000
0000
0FFC
0FFC
3C0F
3C0F
3C0F
3C0F
3C0F
3C0F
3C0F
3C0F
3C0F
3C0F
3CCF
3CCF
3CFF
3CFF
0FFC
0FFC
003F
003F
0000
0000
0000
0000
ENDCHAR
STARTCHAR u2195
ENCODING 8597
SWIDTH 1332 0
DWIDTH 16 0
BBX 16 28 0 -8
BITMAP
0000
0000
0000
0000
03C0
03C0
0FF0
0FF0
3FFC
3FFC
03C0
03C0
03C0
03C0
03C0
03C0
3FFC
3FFC
0FF0
0FF0
03C0
03C0
0000
0000
0000
0000
0000
0000
ENDCHAR
STARTCHAR u05DC
ENCODING 1500
SWIDTH 1332 0
DWIDTH 16 0
BBX 16 28 0 -8
BITMAP
0000
0000
3C00
3C00
3C00
3C00
3FFC
3FFC
000F
000F
000F
000F
000F
000F
003C
003C
00F0
00F0
03C0
03C0
03C0
03C0
0000
0000
0000
0000
0000
0000
ENDCHAR
STARTCHAR u003C
ENCODING 60
SWIDTH 1332 0
DWIDTH 16 0
BBX 16 28 0 -8
BITMAP
0000
0000
0000
0000
003C
003C
00F0
00F0
03C0
03C0
0F00
0F00
3C00
3C00
0F00
0F00
03C0
03C0
00F0
00F0
003C
003C
0000
0000
0000
0000
0000
0000
ENDCHAR
STARTCHAR u0065
ENCODING 101
SWIDTH 1332 0
DWIDTH 16 0
BBX 16 28 0 -8
BITMAP
0000
0000
0000
0000
0000
0000
0000
0000
0000
0000
0FFC
0FFC
3C0F
3C0F
3FFF
3FFF
3C00
3C00
3C0F
3C0F
0FFC
0FFC
0000
0000
0000
0000
0000
0000
ENDCHAR
STARTCHAR u0049
ENCODING 73
SWIDTH 1332 0
DWIDTH 16 0
BBX 16 28 0 -8
BITMAP
0000
0000
0000
0000
0FF0
0FF0
03C0
03C0
03C0
03C0
03C0
03C0
03C0
03C0
03C0
03C0
03C0
03C0
03C0
03C0
0FF0
0FF0
0000
0000
0000
0000
0000
0000
ENDCHAR
STARTCHAR u0056
ENCODING 86
SWIDTH 1332 0
DWIDTH 16 0
BBX 16 28 0 -8
BITMAP
0000
0000
0000
0000
3C0F
3C0F
3C0F
3C0F
3C0F
3C0F
3C0F
3C0F
3C0F
3C0F
3C0F
3C0F
0F3C
0F3C
03F0
03F0
00C0
00C0
0000
0000
0000
0000
0000
0000
ENDCHAR
STARTCHAR u004C
ENCODING 76
SWIDTH 1332 0
DWIDTH 16 0
BBX 16 28 0 -8
BITMAP
0000
0000
0000
0000
3FC0
3FC0
0F00
0F00
0F00
0F00
0F00
0F00
0F00
0F00
0F00
0F00
0F03
0F03
0F0F
0F0F
3FFF
3FFF
0000
0000
0000
0000
0000
0000
ENDCHAR
STARTCHAR u05E2
ENCODING 1506
SWIDTH 1332 0
DWIDTH 16 0
BBX 16 28 0 -8
BITMAP
0000
0000
0000
0000
0000
0000
0F0F
0F0F
0F0F
0F0F
0F0F
0F0F
0F0F
0F0F
0F0F
0F0F
03CF
03CF
00FC
00FC
3FF0
3FF0
0000
0000
0000
0000
0000
0000
ENDCHAR
STARTCHAR u003E
ENCODING 62
SWIDTH 1332 0
DWIDTH 16 0
BBX 16 28 0 -8
BITMAP
0000
0000
0000
0000
3C00
3C00
0F00
0F00
03C0
03C0
00F0
00F0
003C
003C
00F0
00F0
03C0
03C0
0F00
0F00
3C00
3C00
0000
0000
0000
0000
0000
0000
ENDCHAR
STARTCHAR u00F7
ENCODING 247
SWIDTH 1332 0
DWIDTH 16 0
BBX 16 28 0 -8
BITMAP
0000
0000
0000
0000
0000
0000
0000
0000
03C0
03C0
0000
0000
3FFC
3FFC
0000
0000
03C0
03C0
0000
0000
0000
0000
0000
0000
0000
0000
0000
0000
ENDCHAR
STARTCHAR u0043
ENCODING 67
SWIDTH 1332 0
DWIDTH 16 0
BBX 16 28 0 -8
BITMAP
0000
0000
0000
0000
03FC
03FC
0F0F
0F0F
3C03
3C03
3C00
3C00
3C00
3C00
3C00
3C00
3C03
3C03
0F0F
0F0F
03FC
03FC
0000
0000
0000
0000
0000
0000
ENDCHAR
STARTCHAR u00A5
ENCODING 165
SWIDTH 1332 0
DWIDTH 16 0
BBX 16 28 0 -8
BITMAP
0000
0000
0000
0000
3C3C
3C3C
3C3C
3C3C
0FF0
0FF0
03C0
03C0
3FFC
3FFC
03C0
03C0
3FFC
3FFC
03C0
03C0
03C0
03C0
0000
0000
0000
0000
0000
0000
ENDCHAR
STARTCHAR u05D7
ENCODING 1495
SWIDTH 1332 0
DWIDTH 16 0
BBX 16 28 0 -8
BITMAP
0000
0000
0000
0000
0000
0000
3FFC
3FFC
0F0F
0F0F
3C0F
3C0F
3C0F
3C0F
3C0F
3C0F
3C0F
3C0F
3C0F
3C0F
3C0F
3C0F
0000
0000
0000
0000
0000
0000
ENDCHAR
STARTCHAR u006E
ENCODING 110
SWIDTH 1332 0
DWIDTH 16 0
BBX 16 28 0 -8
BITMAP
0000
0000
0000
0000
0000
0000
0000
0000
0000
0000
3CFC
3CFC
0F0F
0F0F
0F0F
0F0F
0F0F
0F0F
0F0F
0F0F
0F0F
0F0F
0000
0000
0000
0000
0000
0000
ENDCHAR
STARTCHAR u0052
ENCODING 82
SWIDTH 1332 0
DWIDTH 16 0
BBX 16 28 0 -8
BITMAP
0000
0000
0000
0000
3FFC
3FFC
0F0F
0F0F
0F0F
0F0F
0F0F
0F0F
0FFC
0FFC
0F3C
0F3C
0F0F
0F0F
0F0F
0F0F
3F0F
3F0F
0000
0000
0000
0000
0000
0000
ENDCHAR
STARTCHAR u2663
ENCODING 9827
SWIDTH 1332 0
DWIDTH 16 0
BBX 16 28 0 -8
BITMAP
0000
0000
0000
0000
03C0
03C0
0FF0
0FF0
0FF0
0FF0
FC3F
FC3F
FC3F
FC3F
FC3F
FC3F
03C0
03C0
03C0
03C0
0FF0
0FF0
0000
0000
0000
0000
0000
0000
ENDCHAR
STARTCHAR u25C4
ENCODING 9668
SWIDTH 1332 0
DWIDTH 16 0
BBX 16 28 0 -8
BITMAP
0000
0000
0000
0000
0003
0003
000F
000F
003F
003F
03FF
03FF
3FFF
3FFF
03FF
03FF
003F
003F
000F
000F
0003
0003
0000
0000
0000
0000
0000
0000
ENDCHAR
STARTCHAR u00A8
ENCODING 168
SWIDTH 1332 0
DWIDTH 16 0
BBX 16 28 0 -8
BITMAP
0000
0000
F03C
F03C
0000
0000
0000
0000
0000
0000
0000
0000
0000
0000
0000
0000
0000
0000
0000
0000
0000
0000
0000
0000
0000
0000
0000
0000
ENDCHAR
STARTCHAR u05DF
ENCODING 1503
SWIDTH 1332 0
DWIDTH 16 0
BBX 16 28 0 -8
BITMAP
0000
0000
0000
0000
0000
0000
03F0
03F0
003C
003C
003C
003C
00F0
00F0
00F0
00F0
00F0
00F0
00F0
00F0
00F0
00F0
00F0
00F0
00FC
00FC
0000
0000
ENDCHAR
STARTCHAR u2017
ENCODING 8215
SWIDTH 1332 0
DWIDTH 16 0
BBX 16 28 0 -8
BITMAP
0000
0000
0000
0000
0000
0000
0000
0000
0000
0000
0000
0000
0000
0000
0000
0000
0000
0000
0000
0000
FFFF
FFFF
0000
0000
FFFF
FFFF
0000
0000
ENDCHAR
STARTCHAR u00B8
ENCODING 184
SWIDTH 1332 0
DWIDTH 16 0
BBX 16 28 0 -8
BITMAP
0000
0000
0000
0000
0000
0000
0000
0000
0000
0000
0000
0000
0000
0000
0000
0000
0000
0000
0000
0000
0000
0000
03C0
03C0
00F0
00F0
3FC0
3FC0
ENDCHAR
STARTCHAR u0070
ENCODING 112
SWIDTH 1332 0
DWIDTH 16 0
BBX 16 28 0 -8
BITMAP
0000
0000
0000
0000
0000
0000
0000
0000
0000
0000
3CFC
3CFC
0F0F
0F0F
0F0F
0F0F
0F0F
0F0F
0FFC
0FFC
0F00
0F00
0F00
0F00
3FC0
3FC0
0000
0000
ENDCHAR
STARTCHAR u0045
ENCODING 69
SWIDTH 1332 0
DWIDTH 16 0
BBX 16 28 0 -8
BITMAP
0000
0000
0000
0000
3FFF
3FFF
0F0F
0F0F
0F03
0F03
0F30
0F30
0FF0
0FF0
0F30
0F30
0F03
0F03
0F0F
0F0F
3FFF
3FFF
0000
0000
0000
0000
0000
0000
ENDCHAR
STARTCHAR u00AC
ENCODING 172
SWIDTH 1332 0
DWIDTH 16 0
BBX 16 28 0 -8
BITMAP
0000
0000
0000
0000
0000
0000
0000
0000
0000
0000
0000
0000
3FFF
3FFF
000F
000F
000F
000F
000F
000F
0000
0000
0000
0000
0000
0000
0000
0000
ENDCHAR
STARTCHAR u05E5
ENCODING 1509
SWIDTH 1332 0
DWIDTH 16 0
BBX 16 28 0 -8
BITMAP
0000
0000
0000
0000
0000
0000
3C3C
3C3C
3C3C
3C3C
3C3C
3C3C
3C3C
3C3C
3CF0
3CF0
3FC0
3FC0
3C00
3C00
3C00
3C00
3C00
3C00
3F00
3F00
0000
0000
ENDCHAR
STARTCHAR u2642
ENCODING 9794
SWIDTH 1332 0
DWIDTH 16 0
BBX 16 28 0 -8
BITMAP
0000
0000
0000
0000
00FF
00FF
003F
003F
00F3
00F3
03C3
03C3
0FF0
0FF0
3C3C
3C3C
3C3C
3C3C
3C3C
3C3C
0FF0
0FF0
0000
0000
0000
0000
0000
0000
ENDCHAR
STARTCHAR u0031
ENCODING 49
SWIDTH 1332 0
DWIDTH 16 0
BBX 16 28 0 -8
BITMAP
0000
0000
0000
0000
00F0
00F0
03F0
03F0
0FF0
0FF0
00F0
00F0
00F0
00F0
00F0
00F0
00F0
00F0
00F0
00F0
0FFF
0FFF
0000
0000
0000
0000
0000
0000
ENDCHAR
STARTCHAR u00B2
ENCODING 178
SWIDTH 1332 0
DWIDTH 16 0
BBX 16 28 0 -8
BITMAP
0000
0000
0FF0
0FF0
3C3C
3C3C
00F0
00F0
03C0
03C0
0F0C
0F0C
3FFC
3FFC
0000
0000
0000
0000
0000
0000
0000
0000
0000
0000
0000
0000
0000
0000
ENDCHAR
STARTCHAR u00BB
ENCODING 187
SWIDTH 1332 0
DWIDTH 16 0
BBX 16 28 0 -8
BITMAP
0000
0000
0000
0000
0000
0000
0000
0000
3CF0
3CF0
0F3C
0F3C
03CF
03CF
0F3C
0F3C
3CF0
3CF0
0000
0000
0000
0000
0000
0000
0000
0000
0000
0000
ENDCHAR
STARTCHAR u007C
ENCODING 124
SWIDTH 1332 0
DWIDTH 16 0
BBX 16 28 0 -8
BITMAP
0000
0000
0000
0000
03C0
03C0
03C0
03C0
03C0
03C0
03C0
03C0
03C0
03C0
03C0
03C0
03C0
03C0
03C0
03C0
03C0
03C0
0000
0000
0000
0000
0000
0000
ENDCHAR
STARTCHAR u0068
ENCODING 104
SWIDTH 1332 0
DWIDTH 16 0
BBX 16 28 0 -8
BITMAP
0000
0000
0000
0000
3F00
3F00
0F00
0F00
0F00
0F00
0F3C
0F3C
0FCF
0FCF
0F0F
0F0F
0F0F
0F0F
0F0F
0F0F
3F0F
3F0F
0000
0000
0000
0000
0000
0000
ENDCHAR
STARTCHAR u2192
ENCODING 8594
SWIDTH 1332 0
DWIDTH 16 0
BBX 16 28 0 -8
BITMAP
0000
0000
0000
0000
0000
0000
0000
0000
00F0
00F0
003C
003C
3FFF
3FFF
003C
003C
00F0
00F0
0000
0000
0000
0000
0000
0000
0000
0000
0000
0000
ENDCHAR
STARTCHAR u05D5
ENCODING 1493
SWIDTH 1332 0
DWIDTH 16 0
BBX 16 28 0 -8
BITMAP
0000
0000
0000
0000
0000
0000
0FC0
0FC0
00F0
00F0
00F0
00F0
00F0
00F0
00F0
00F0
00F0
00F0
00F0
00F0
00F0
00F0
0000
0000
0000
0000
0000
0000
ENDCHAR
STARTCHAR u00B5
ENCODING 181
SWIDTH 1332 0
DWIDTH 16 0
BBX 16 28 0 -8
BITMAP
0000
0000
0000
0000
0000
0000
0000
0000
0000
0000
0F0F
0F0F
0F0F
0F0F
0F0F
0F0F
0F0F
0F0F
0F0F
0F0F
0FFC
0FFC
0F00
0F00
3C00
3C00
0000
0000
ENDCHAR
STARTCHAR u0079
ENCODING 121
SWIDTH 1332 0
DWIDTH 16 0
BBX 16 28 0 -8
BITMAP
0000
0000
0000
0000
0000
0000
0000
0000
0000
0000
3C0F
3C0F
3C0F
3C0F
3C0F
3C0F
3C0F
3C0F
0FFF
0FFF
000F
000F
003C
003C
0FF0
0FF0
0000
0000
ENDCHAR
STARTCHAR u004F
ENCODING 79
SWIDTH 1332 0
DWIDTH 16 0
BBX 16 28 0 -8
BITMAP
0000
0000
0000
0000
0FFC
0FFC
3C0F
3C0F
3C0F
3C0F
3C0F
3C0F
3C0F
3C0F
3C0F
3C0F
3C0F
3C0F
3C0F
3C0F
0FFC
0FFC
0000
0000
0000
0000
0000
0000
ENDCHAR
STARTCHAR u263A
ENCODING 9786
SWIDTH 1332 0
DWIDTH 16 0
BBX 16 28 0 -8
BITMAP
0000
0000
0000
0000
3FFC
3FFC
C003
C003
CC33
CC33
C003
C003
C003
C003
CFF3
CFF3
C3C3
C3C3
C003
C003
3FFC
3FFC
0000
0000
0000
0000
0000
0000
ENDCHAR
STARTCHAR u05E9
ENCODING 1513
SWIDTH 1332 0
DWIDTH 16 0
BBX 16 28 0 -8
BITMAP
0000
0000
0000
0000
0000
0000
3CCF
3CCF
3CCF
3CCF
3CCF
3CCF
3CCF
3CCF
3CCF
3CCF
3FCF
3FCF
3C0F
3C0F
0FFC
0FFC
0000
0000
0000
0000
0000
0000
ENDCHAR
STARTCHAR u05E1
ENCODING 1505
SWIDTH 1332 0
DWIDTH 16 0
BBX 16 28 0 -8
BITMAP
0000
0000
0000
0000
0000
0000
3FFC
3FFC
0F0F
0F0F
3C0F
3C0F
3C0F
3C0F
3C0F
3C0F
3C0F
3C0F
3C3C
3C3C
0FF0
0FF0
0000
0000
0000
0000
0000
0000
ENDCHAR
STARTCHAR u05DE
ENCODING 1502
SWIDTH 1332 0
DWIDTH 16 0
BBX 16 28 0 -8
BITMAP
0000
0000
0000
0000
0000
0000
3CFC
3CFC
3FCF
3FCF
0F0F
0F0F
3C0F
3C0F
3C0F
3C0F
3C0F
3C0F
3C0F
3C0F
3CFF
3CFF
0000
0000
0000
0000
0000
0000
ENDCHAR
STARTCHAR u0060
ENCODING 96
SWIDTH 1332 0
DWIDTH 16 0
BBX 16 28 0 -8
BITMAP
0F00
0F00
03C0
03C0
00F0
00F0
0000
0000
0000
0000
0000
0000
0000
0000
0000
0000
0000
0000
0000
0000
0000
0000
0000
0000
0000
0000
0000
0000
ENDCHAR
STARTCHAR u25B2
ENCODING 9650
SWIDTH 1332 0
DWIDTH 16 0
BBX 16 28 0 -8
BITMAP
0000
0000
0000
0000
0000
0000
00C0
00C0
03F0
03F0
03F0
03F0
0FFC
0FFC
0FFC
0FFC
3FFF
3FFF
3FFF
3FFF
0000
0000
0000
0000
0000
0000
0000
0000
ENDCHAR
STARTCHAR u007E
ENCODING 126
SWIDTH 1332 0
DWIDTH 16 0
BBX 16 28 0 -8
BITMAP
0000
0000
0FCF
0FCF
3CFC
3CFC
0000
0000
0000
0000
0000
0000
0000
0000
0000
0000
0000
0000
0000
0000
0000
0000
0000
0000
0000
0000
0000
0000
ENDCHAR
STARTCHAR u2640
ENCODING 9792
SWIDTH 1332 0
DWIDTH 16 0
BBX 16 28 0 -8
BITMAP
0000
0000
0000
0000
0FF0
0FF0
3C3C
3C3C
3C3C
3C3C
3C3C
3C3C
0FF0
0FF0
03C0
03C0
3FFC
3FFC
03C0
03C0
03C0
03C0
0000
0000
0000
0000
0000
0000
ENDCHAR
STARTCHAR u00A0
ENCODING 160
SWIDTH 1332 0
DWIDTH 16 0
BBX 16 28 0 -8
BITMAP
0000
0000
0000
0000
0000
0000
0000
0000
0000
0000
0000
0000
0000
0000
0000
0000
0000
0000
0000
0000
0000
0000
0000
0000
0000
0000
0000
0000
ENDCHAR
STARTCHAR u00B0
ENCODING 176
SWIDTH 1332 0
DWIDTH 16 0
BBX 16 28 0 -8
BITMAP
0000
0000
0FC0
0FC0
3CF0
3CF0
3CF0
3CF0
0FC0
0FC0
0000
0000
0000
0000
0000
0000
0000
0000
0000
0000
0000
0000
0000
0000
0000
0000
0000
0000
ENDCHAR
STARTCHAR u203E
ENCODING 8254
SWIDTH 1332 0
DWIDTH 16 0
BBX 16 28 0 -8
BITMAP
0000
0000
FFFF
FFFF
0000
0000
0000
0000
0000
0000
0000
0000
0000
0000
0000
0000
0000
0000
0000
0000
0000
0000
0000
0000
0000
0000
0000
0000
ENDCHAR
STARTCHAR u25D8
ENCODING 9688
SWIDTH 1332 0
DWIDTH 16 0
BBX 16 28 0 -8
BITMAP
FFFF
FFFF
FFFF
FFFF
FFFF
FFFF
FFFF
FFFF
FFFF
FFFF
FC3F
FC3F
F00F
F00F
F00F
F00F
FC3F
FC3F
FFFF
FFFF
FFFF
FFFF
FFFF
FFFF
FFFF
FFFF
FFFF
FFFF
ENDCHAR
STARTCHAR u002F
ENCODING 47
SWIDTH 1332 0
DWIDTH 16 0
BBX 16 28 0 -8
BITMAP
0000
0000
0000
0000
0003
0003
000F
000F
003C
003C
00F0
00F0
03C0
03C0
0F00
0F00
3C00
3C00
3000
3000
0000
0000
0000
0000
0000
0000
0000
0000
ENDCHAR
STARTCHAR u0062
ENCODING 98
SWIDTH 1332 0
DWIDTH 16 0
BBX 16 28 0 -8
BITMAP
0000
0000
0000
0000
3F00
3F00
0F00
0F00
0F00
0F00
0FF0
0FF0
0F3C
0F3C
0F0F
0F0F
0F0F
0F0F
0F0F
0F0F
0FFC
0FFC
0000
0000
0000
0000
0000
0000
ENDCHAR
STARTCHAR u25AC
ENCODING 9644
SWIDTH 1332 0
DWIDTH 16 0
BBX 16 28 0 -8
BITMAP
0000
0000
0000
0000
0000
0000
0000
0000
0000
0000
0000
0000
0000
0000
0000
0000
3FFF
3FFF
3FFF
3FFF
3FFF
3FFF
0000
0000
0000
0000
0000
0000
ENDCHAR
STARTCHAR u0025
ENCODING 37
SWIDTH 1332 0
DWIDTH 16 0
BBX 16 28 0 -8
BITMAP
0000
0000
0000
0000
0000
0000
0000
0000
3C03
3C03
3C0F
3C0F
003C
003C
00F0
00F0
03C0
03C0
0F0F
0F0F
3C0F
3C0F
0000
0000
0000
0000
0000
0000
ENDCHAR
STARTCHAR u0075
ENCODING 117
SWIDTH 1332 0
DWIDTH 16 0
BBX 16 28 0 -8
BITMAP
0000
0000
0000
0000
0000
0000
0000
0000
0000
0000
3C3C
3C3C
3C3C
3C3C
3C3C
3C3C
3C3C
3C3C
3C3C
3C3C
0FCF
0FCF
0000
0000
0000
0000
0000
0000
ENDCHAR
STARTCHAR u002B
ENCODING 43
SWIDTH 1332 0
DWIDTH 16 0
BBX 16 28 0 -8
BITMAP
0000
0000
0000
0000
0000
0000
0000
0000
03C0
03C0
03C0
03C0
3FFC
3FFC
03C0
03C0
03C0
03C0
0000
0000
0000
0000
0000
0000
0000
0000
0000
0000
ENDCHAR
STARTCHAR u2660
ENCODING 9824
SWIDTH 1332 0
DWIDTH 16 0
BBX 16 28 0 -8
BITMAP
0000
0000
0000
0000
03C0
03C0
0FF0
0FF0
3FFC
3FFC
FFFF
FFFF
FFFF
FFFF
3FFC
3FFC
03C0
03C0
03C0
03C0
0FF0
0FF0
0000
0000
0000
0000
0000
0000
ENDCHAR
STARTCHAR u0021
ENCODING 33
SWIDTH 1332 0
DWIDTH 16 0
BBX 16 28 0 -8
BITMAP
0000
0000
0000
0000
03C0
03C0
0FF0
0FF0
0FF0
0FF0
0FF0
0FF0
03C0
03C0
03C0
03C0
0000
0000
03C0
03C0
03C0
03C0
0000
0000
0000
0000
0000
0000
ENDCHAR
STARTCHAR u25BA
ENCODING 9658
SWIDTH 1332 0
DWIDTH 16 0
BBX 16 28 0 -8
BITMAP
0000
0000
0000
0000
3000
3000
3C00
3C00
3F00
3F00
3FF0
3FF0
3FFF
3FFF
3FF0
3FF0
3F00
3F00
3C00
3C00
3000
3000
0000
0000
0000
0000
0000
0000
ENDCHAR
STARTCHAR u003F
ENCODING 63
SWIDTH 1332 0
DWIDTH 16 0
BBX 16 28 0 -8
BITMAP
0000
0000
0000
0000
0FFC
0FFC
3C0F
3C0F
3C0F
3C0F
003C
003C
00F0
00F0
00F0
00F0
0000
0000
00F0
00F0
00F0
00F0
0000
0000
0000
0000
0000
0000
ENDCHAR
STARTCHAR u263B
ENCODING 9787
SWIDTH 1332 0
DWIDTH 16 0
BBX 16 28 0 -8
BITMAP
0000
0000
0000
0000
3FFC
3FFC
FFFF
FFFF
F3CF
F3CF
FFFF
FFFF
FFFF
FFFF
F00F
F00F
FC3F
FC3F
FFFF
FFFF
3FFC
3FFC
0000
0000
0000
0000
0000
0000
ENDCHAR
STARTCHAR u221F
ENCODING 8735
SWIDTH 1332 0
DWIDTH 16 0
BBX 16 28 0 -8
BITMAP
0000
0000
0000
0000
0000
0000
0000
0000
0000
0000
3C00
3C00
3C00
3C00
3C00
3C00
3FFF
3FFF
0000
0000
0000
0000
0000
0000
0000
0000
0000
0000
ENDCHAR
STARTCHAR u25D9
ENCODING 9689
SWIDTH 1332 0
DWIDTH 16 0
BBX 16 28 0 -8
BITMAP
FFFF
FFFF
FFFF
FFFF
FFFF
FFFF
FFFF
FFFF
F00F
F00F
C3C3
C3C3
CFF3
CFF3
CFF3
CFF3
C3C3
C3C3
F00F
F00F
FFFF
FFFF
FFFF
FFFF
FFFF
FFFF
FFFF
FFFF
ENDCHAR
STARTCHAR u0050
ENCODING 80
SWIDTH 1332 0
DWIDTH 16 0
BBX 16 28 0 -8
BITMAP
0000
0000
0000
0000
3FFC
3FFC
0F0F
0F0F
0F0F
0F0F
0F0F
0F0F
0FFC
0FFC
0F00
0F00
0F00
0F00
0F00
0F00
3FC0
3FC0
0000
0000
0000
0000
0000
0000
ENDCHAR
STARTCHAR u0077
ENCODING 119
SWIDTH 1332 0
DWIDTH 16 0
BBX 16 28 0 -8
BITMAP
0000
0000
0000
0000
0000
0000
0000
0000
0000
0000
3C0F
3C0F
3C0F
3C0F
3CCF
3CCF
3CCF
3CCF
3FFF
3FFF
0F3C
0F3C
0000
0000
0000
0000
0000
0000
ENDCHAR
STARTCHAR u00B4
ENCODING 180
SWIDTH 1332 0
DWIDTH 16 0
BBX 16 28 0 -8
BITMAP
0000
0000
00F0
00F0
03C0
03C0
0F00
0F00
0000
0000
0000
0000
0000
0000
0000
0000
0000
0000
0000
0000
0000
0000
0000
0000
0000
0000
0000
0000
ENDCHAR
STARTCHAR u0063
ENCODING 99
SWIDTH 1332 0
DWIDTH 16 0
BBX 16 28 0 -8
BITMAP
0000
0000
0000
0000
0000
0000
0000
0000
0000
0000
0FFC
0FFC
3C0F
3C0F
3C00
3C00
3C00
3C00
3C0F
3C0F
0FFC
0FFC
0000
0000
0000
0000
0000
0000
ENDCHAR
STARTCHAR u00B3
ENCODING 179
SWIDTH 1332 0
DWIDTH 16 0
BBX 16 28 0 -8
BITMAP
0000
0000
3FC0
3FC0
00F0
00F0
0FC0
0FC0
00F0
00F0
00F0
00F0
3FC0
3FC0
0000
0000
0000
0000
0000
0000
0000
0000
0000
0000
0000
0000
0000
0000
ENDCHAR
STARTCHAR u00A2
ENCODING 162
SWIDTH 1332 0
DWIDTH 16 0
BBX 16 28 0 -8
BITMAP
0000
0000
03C0
03C0
03C0
03C0
3FFC
3FFC
F00F
F00F
F000
F000
F000
F000
F00F
F00F
3FFC
3FFC
03C0
03C0
03C0
03C0
0000
0000
0000
0000
0000
0000
ENDCHAR
STARTCHAR u0048
ENCODING 72
SWIDTH 1332 0
DWIDTH 16 0
BBX 16 28 0 -8
BITMAP
0000
0000
0000
0000
3C0F
3C0F
3C0F
3C0F
3C0F
3C0F
3C0F
3C0F
3FFF
3FFF
3C0F
3C0F
3C0F
3C0F
3C0F
3C0F
3C0F
3C0F
0000
0000
0000
0000
0000
0000
ENDCHAR
STARTCHAR u2022
ENCODING 8226
SWIDTH 1332 0
DWIDTH 16 0
BBX 16 28 0 -8
BITMAP
0000
0000
0000
0000
0000
0000
0000
0000
0000
0000
03C0
03C0
0FF0
0FF0
0FF0
0FF0
03C0
03C0
0000
0000
0000
0000
0000
0000
0000
0000
0000
0000
ENDCHAR
STARTCHAR u25C0
ENCODING 9664
SWIDTH 1332 0
DWIDTH 16 0
BBX 16 28 0 -8
BITMAP
0000
0000
0000
0000
0003
0003
000F
000F
003F
003F
03FF
03FF
3FFF
3FFF
03FF
03FF
003F
003F
000F
000F
0003
0003
0000
0000
0000
0000
0000
0000
ENDCHAR
STARTCHAR u05D8
ENCODING 1496
SWIDTH 1332 0
DWIDTH 16 0
BBX 16 28 0 -8
BITMAP
0000
0000
0000
0000
0000
0000
3C3C
3C3C
3CCF
3CCF
3CCF
3CCF
3C0F
3C0F
3C0F
3C0F
3C0F
3C0F
3C3C
3C3C
0FF0
0FF0
0000
0000
0000
0000
0000
0000
ENDCHAR
STARTCHAR u004A
ENCODING 74
SWIDTH 1332 0
DWIDTH 16 0
BBX 16 28 0 -8
BITMAP
0000
0000
0000
0000
00FF
00FF
003C
003C
003C
003C
003C
003C
003C
003C
003C
003C
3C3C
3C3C
3C3C
3C3C
0FF0
0FF0
0000
0000
0000
0000
0000
0000
ENDCHAR
STARTCHAR u00B6
ENCODING 182
SWIDTH 1332 0
DWIDTH 16 0
BBX 16 28 0 -8
BITMAP
0000
0000
0000
0000
0000
0000
0000
0000
0000
0000
0000
0000
0000
0000
0000
0000
0000
0000
0000
0000
0000
0000
0000
0000
0000
0000
0000
0000
ENDCHAR
STARTCHAR u003D
ENCODING 61
SWIDTH 1332 0
DWIDTH 16 0
BBX 16 28 0 -8
BITMAP
0000
0000
0000
0000
0000
0000
0000
0000
0000
0000
3FFC
3FFC
0000
0000
0000
0000
3FFC
3FFC
0000
0000
0000
0000
0000
0000
0000
0000
0000
0000
ENDCHAR
STARTCHAR u006C
ENCODING 108
SWIDTH 1332 0
DWIDTH 16 0
BBX 16 28 0 -8
BITMAP
0000
0000
0000
0000
0FC0
0FC0
03C0
03C0
03C0
03C0
03C0
03C0
03C0
03C0
03C0
03C0
03C0
03C0
03C0
03C0
0FF0
0FF0
0000
0000
0000
0000
0000
0000
ENDCHAR
STARTCHAR u0073
ENCODING 115
SWIDTH 1332 0
DWIDTH 16 0
BBX 16 28 0 -8
BITMAP
0000
0000
0000
0000
0000
0000
0000
0000
0000
0000
0FFC
0FFC
3C0F
3C0F
0FC0
0FC0
00FC
00FC
3C0F
3C0F
0FFC
0FFC
0000
0000
0000
0000
0000
0000
ENDCHAR
STARTCHAR u05DA
ENCODING 1498
SWIDTH 1332 0
DWIDTH 16 0
BBX 16 28 0 -8
BITMAP
0000
0000
0000
0000
0000
0000
3FFC
3FFC
000F
000F
000F
000F
003C
003C
003C
003C
003C
003C
003C
003C
003C
003C
003C
003C
003F
003F
0000
0000
ENDCHAR
STARTCHAR u005C
ENCODING 92
SWIDTH 1332 0
DWIDTH 16 0
BBX 16 28 0 -8
BITMAP
0000
0000
0000
0000
3000
3000
3C00
3C00
3F00
3F00
0FC0
0FC0
03F0
03F0
00FC
00FC
003F
003F
000F
000F
0003
0003
0000
0000
0000
0000
0000
0000
ENDCHAR
STARTCHAR u05D1
ENCODING 1489
SWIDTH 1332 0
DWIDTH 16 0
BBX 16 28 0 -8
BITMAP
0000
0000
0000
0000
0000
0000
3FF0
3FF0
003C
003C
003C
003C
003C
003C
003C
003C
003C
003C
003C
003C
3FFF
3FFF
0000
0000
0000
0000
0000
0000
ENDCHAR
STARTCHAR u0067
ENCODING 103
SWIDTH 1332 0
DWIDTH 16 0
BBX 16 28 0 -8
BITMAP
0000
0000
0000
0000
0000
0000
0000
0000
0000
0000
0FCF
0FCF
3C3C
3C3C
3C3C
3C3C
3C3C
3C3C
0FFC
0FFC
003C
003C
3C3C
3C3C
0FF0
0FF0
0000
0000
ENDCHAR
STARTCHAR u051F
ENCODING 1311
SWIDTH 1332 0
DWIDTH 16 0
BBX 16 28 0 -8
BITMAP
0000
0000
0000
0000
0000
0000
0000
0000
0000
0000
0000
0000
0000
0000
0000
0000
0000
0000
0000
0000
0000
0000
0000
0000
0000
0000
0000
0000
ENDCHAR
STARTCHAR u05D3
ENCODING 1491
SWIDTH 1332 0
DWIDTH 16 0
BBX 16 28 0 -8
BITMAP
0000
0000
0000
0000
0000
0000
3FFF
3FFF
003C
003C
003C
003C
003C
003C
003C
003C
003C
003C
003C
003C
003C
003C
0000
0000
0000
0000
0000
0000
ENDCHAR
STARTCHAR u0071
ENCODING 113
SWIDTH 1332 0
DWIDTH 16 0
BBX 16 28 0 -8
BITMAP
0000
0000
0000
0000
0000
0000
0000
0000
0000
0000
0FCF
0FCF
3C3C
3C3C
3C3C
3C3C
3C3C
3C3C
0FFC
0FFC
003C
003C
003C
003C
00FF
00FF
0000
0000
ENDCHAR
STARTCHAR u05E7
ENCODING 1511
SWIDTH 1332 0
DWIDTH 16 0
BBX 16 28 0 -8
BITMAP
0000
0000
0000
0000
0000
0000
3FFC
3FFC
000F
000F
000F
000F
0F0F
0F0F
0F3C
0F3C
0F3C
0F3C
0F3F
0F3F
0F00
0F00
0F00
0F00
0F00
0F00
0000
0000
ENDCHAR
STARTCHAR u00BD
ENCODING 189
SWIDTH 1332 0
DWIDTH 16 0
BBX 16 28 0 -8
BITMAP
0000
0000
3C00
3C00
FC00
FC00
3C0F
3C0F
3C3C
3C3C
3CF0
3CF0
03C0
03C0
0F00
0F00
3CFC
3CFC
F00F
F00F
003C
003C
00F0
00F0
03FF
03FF
0000
0000
ENDCHAR
STARTCHAR u005B
ENCODING 91
SWIDTH 1332 0
DWIDTH 16 0
BBX 16 28 0 -8
BITMAP
0000
0000
0000
0000
0FF0
0FF0
0F00
0F00
0F00
0F00
0F00
0F00
0F00
0F00
0F00
0F00
0F00
0F00
0F00
0F00
0FF0
0FF0
0000
0000
0000
0000
0000
0000
ENDCHAR
STARTCHAR u05E6
ENCODING 1510
SWIDTH 1332 0
DWIDTH 16 0
BBX 16 28 0 -8
BITMAP
0000
0000
0000
0000
0000
0000
3C0F
3C0F
3C0F
3C0F
0F0F
0F0F
03FC
03FC
00F0
00F0
003C
003C
000F
000F
3FFF
3FFF
0000
0000
0000
0000
0000
0000
ENDCHAR
STARTCHAR u00A7
ENCODING 167
SWIDTH 1332 0
DWIDTH 16 0
BBX 16 28 0 -8
BITMAP
0000
0000
0000
0000
0000
0000
0000
0000
0000
0000
0000
0000
0000
0000
0000
0000
0000
0000
0000
0000
0000
0000
0000
0000
0000
0000
0000
0000
ENDCHAR
STARTCHAR u0030
ENCODING 48
SWIDTH 1332 0
DWIDTH 16 0
BBX 16 28 0 -8
BITMAP
0000
0000
0000
0000
03F0
03F0
0F3C
0F3C
3C0F
3C0F
3C0F
3C0F
3CCF
3CCF
3C0F
3C0F
3C0F
3C0F
0F3C
0F3C
03F0
03F0
0000
0000
0000
0000
0000
0000
ENDCHAR
STARTCHAR u006B
ENCODING 107
SWIDTH 1332 0
DWIDTH 16 0
BBX 16 28 0 -8
BITMAP
0000
0000
0000
0000
3F00
3F00
0F00
0F00
0F00
0F00
0F0F
0F0F
0F3C
0F3C
0FF0
0FF0
0F3C
0F3C
0F0F
0F0F
3F0F
3F0F
0000
0000
0000
0000
0000
0000
ENDCHAR
STARTCHAR u0057
ENCODING 87
SWIDTH 1332 0
DWIDTH 16 0
BBX 16 28 0 -8
BITMAP
0000
0000
0000
0000
3C0F
3C0F
3C0F
3C0F
3C0F
3C0F
3C0F
3C0F
3CCF
3CCF
3CCF
3CCF
3FFF
3FFF
0F3C
0F3C
0F3C
0F3C
0000
0000
0000
0000
0000
0000
ENDCHAR
STARTCHAR u00AE
ENCODING 174
SWIDTH 1332 0
DWIDTH 16 0
BBX 16 28 0 -8
BITMAP
0000
0000
0000
0000
0000
0000
0FC0
0FC0
3030
3030
CFCC
CFCC
CCCC
CCCC
CF0C
CF0C
CCCC
CCCC
CCCC
CCCC
3030
3030
0FC0
0FC0
0000
0000
0000
0000
ENDCHAR
STARTCHAR u004D
ENCODING 77
SWIDTH 1332 0
DWIDTH 16 0
BBX 16 28 0 -8
BITMAP
0000
0000
0000
0000
3C0F
3C0F
3F3F
3F3F
3FFF
3FFF
3CCF
3CCF
3C0F
3C0F
3C0F
3C0F
3C0F
3C0F
3C0F
3C0F
3C0F
3C0F
0000
0000
0000
0000
0000
0000
ENDCHAR
STARTCHAR uFFFD
ENCODING 65533
SWIDTH 1332 0
DWIDTH 16 0
BBX 16 28 0 -8
BITMAP
0000
0000
0000
0000
0000
0000
0000
0000
0000
0000
0000
0000
0000
0000
0000
0000
0000
0000
0000
0000
0000
0000
0000
0000
0000
0000
0000
0000
ENDCHAR
STARTCHAR u007B
ENCODING 123
SWIDTH 1332 0
DWIDTH 16 0
BBX 16 28 0 -8
BITMAP
0000
0000
0000
0000
00FC
00FC
03C0
03C0
03C0
03C0
03C0
03C0
3F00
3F00
03C0
03C0
03C0
03C0
03C0
03C0
00FC
00FC
0000
0000
0000
0000
0000
0000
ENDCHAR
STARTCHAR u0032
ENCODING 50
SWIDTH 1332 0
DWIDTH 16 0
BBX 16 28 0 -8
BITMAP
0000
0000
0000
0000
0FFC
0FFC
3C0F
3C0F
000F
000F
003C
003C
00F0
00F0
03C0
03C0
0F00
0F00
3C0F
3C0F
3FFF
3FFF
0000
0000
0000
0000
0000
0000
ENDCHAR
STARTCHAR u0027
ENCODING 39
SWIDTH 1332 0
DWIDTH 16 0
BBX 16 28 0 -8
BITMAP
0F00
0F00
0F00
0F00
3C00
3C00
0000
0000
0000
0000
0000
0000
0000
0000
0000
0000
0000
0000
0000
0000
0000
0000
0000
0000
0000
0000
0000
0000
ENDCHAR
STARTCHAR u0040
ENCODING 64
SWIDTH 1332 0
DWIDTH 16 0
BBX 16 28 0 -8
BITMAP
0000
0000
0000
0000
0FFC
0FFC
3C0F
3C0F
3C0F
3C0F
3CFF
3CFF
3CFF
3CFF
3CFF
3CFF
3CF0
3CF0
3C00
3C00
0FFC
0FFC
0000
0000
0000
0000
0000
0000
ENDCHAR
STARTCHAR u0061
ENCODING 97
SWIDTH 1332 0
DWIDTH 16 0
BBX 16 28 0 -8
BITMAP
0000
0000
0000
0000
0000
0000
0000
0000
0000
0000
0FF0
0FF0
003C
003C
0FFC
0FFC
3C3C
3C3C
3C3C
3C3C
0FCF
0FCF
0000
0000
0000
0000
0000
0000
ENDCHAR
STARTCHAR u2302
ENCODING 8962
SWIDTH 1332 0
DWIDTH 16 0
BBX 16 28 0 -8
BITMAP
0000
0000
0000
0000
0000
0000
0000
0000
00C0
00C0
03F0
03F0
0F3C
0F3C
3C0F
3C0F
3C0F
3C0F
3FFF
3FFF
0000
0000
0000
0000
0000
0000
0000
0000
ENDCHAR
STARTCHAR u0029
ENCODING 41
SWIDTH 1332 0
DWIDTH 16 0
BBX 16 28 0 -8
BITMAP
0000
0000
0000
0000
03C0
03C0
00F0
00F0
003C
003C
003C
003C
003C
003C
003C
003C
003C
003C
00F0
00F0
03C0
03C0
0000
0000
0000
0000
0000
0000
ENDCHAR
STARTCHAR u0034
ENCODING 52
SWIDTH 1332 0
DWIDTH 16 0
BBX 16 28 0 -8
BITMAP
0000
0000
0000
0000
003C
003C
00FC
00FC
03FC
03FC
0F3C
0F3C
3C3C
3C3C
3FFF
3FFF
003C
003C
003C
003C
00FF
00FF
0000
0000
0000
0000
0000
0000
ENDCHAR
STARTCHAR u00AD
ENCODING 173
SWIDTH 1332 0
DWIDTH 16 0
BBX 16 28 0 -8
BITMAP
0000
0000
0000
0000
0000
0000
0000
0000
0000
0000
0000
0000
0000
0000
FFFC
FFFC
0000
0000
0000
0000
0000
0000
0000
0000
0000
0000
0000
0000
ENDCHAR
STARTCHAR u0038
ENCODING 56
SWIDTH 1332 0
DWIDTH 16 0
BBX 16 28 0 -8
BITMAP
0000
0000
0000
0000
0FFC
0FFC
3C0F
3C0F
3C0F
3C0F
3C0F
3C0F
0FFC
0FFC
3C0F
3C0F
3C0F
3C0F
3C0F
3C0F
0FFC
0FFC
0000
0000
0000
0000
0000
0000
ENDCHAR
STARTCHAR u002D
ENCODING 45
SWIDTH 1332 0
DWIDTH 16 0
BBX 16 28 0 -8
BITMAP
0000
0000
0000
0000
0000
0000
0000
0000
0000
0000
0000
0000
FFFC
FFFC
0000
0000
0000
0000
0000
0000
0000
0000
0000
0000
0000
0000
0000
0000
ENDCHAR
STARTCHAR u0042
ENCODING 66
SWIDTH 1332 0
DWIDTH 16 0
BBX 16 28 0 -8
BITMAP
0000
0000
0000
0000
3FFC
3FFC
0F0F
0F0F
0F0F
0F0F
0F0F
0F0F
0FFC
0FFC
0F0F
0F0F
0F0F
0F0F
0F0F
0F0F
3FFC
3FFC
0000
0000
0000
0000
0000
0000
ENDCHAR
STARTCHAR u05DD
ENCODING 1501
SWIDTH 1332 0
DWIDTH 16 0
BBX 16 28 0 -8
BITMAP
0000
0000
0000
0000
0000
0000
3FFC
3FFC
3C0F
3C0F
3C0F
3C0F
3C0F
3C0F
3C0F
3C0F
3C0F
3C0F
3C0F
3C0F
3FFF
3FFF
0000
0000
0000
0000
0000
0000
ENDCHAR
STARTCHAR u0036
ENCODING 54
SWIDTH 1332 0
DWIDTH 16 0
BBX 16 28 0 -8
BITMAP
0000
0000
0000
0000
03F0
03F0
0F00
0F00
3C00
3C00
3C00
3C00
3FFC
3FFC
3C0F
3C0F
3C0F
3C0F
3C0F
3C0F
0FFC
0FFC
0000
0000
0000
0000
0000
0000
ENDCHAR
STARTCHAR u2191
ENCODING 8593
SWIDTH 1332 0
DWIDTH 16 0
BBX 16 28 0 -8
BITMAP
0000
0000
0000
0000
03C0
03C0
0FF0
0FF0
3FFC
3FFC
03C0
03C0
03C0
03C0
03C0
03C0
03C0
03C0
03C0
03C0
03C0
03C0
0000
0000
0000
0000
0000
0000
ENDCHAR
STARTCHAR u0046
ENCODING 70
SWIDTH 1332 0
DWIDTH 16 0
BBX 16 28 0 -8
BITMAP
0000
0000
0000
0000
3FFF
3FFF
0F0F
0F0F
0F03
0F03
0F30
0F30
0FF0
0FF0
0F30
0F30
0F00
0F00
0F00
0F00
3FC0
3FC0
0000
0000
0000
0000
0000
0000
ENDCHAR
STARTCHAR u05E4
ENCODING 1508
SWIDTH 1332 0
DWIDTH 16 0
BBX 16 28 0 -8
BITMAP
0000
0000
0000
0000
0000
0000
3FFC
3FFC
0C0F
0C0F
3C0F
3C0F
3F0F
3F0F
000F
000F
000F
000F
000F
000F
3FFF
3FFF
0000
0000
0000
0000
0000
0000
ENDCHAR
STARTCHAR u00BC
ENCODING 188
SWIDTH 1332 0
DWIDTH 16 0
BBX 16 28 0 -8
BITMAP
0000
0000
3C00
3C00
FC00
FC00
3C0F
3C0F
3C3C
3C3C
3CF0
3CF0
03C0
03C0
0F3C
0F3C
3CFC
3CFC
F3CC
F3CC
0FFF
0FFF
003C
003C
003C
003C
0000
0000
ENDCHAR
STARTCHAR u0044
ENCODING 68
SWIDTH 1332 0
DWIDTH 16 0
BBX 16 28 0 -8
BITMAP
0000
0000
0000
0000
3FF0
3FF0
0F3C
0F3C
0F0F
0F0F
0F0F
0F0F
0F0F
0F0F
0F0F
0F0F
0F0F
0F0F
0F3C
0F3C
3FF0
3FF0
0000
0000
0000
0000
0000
0000
ENDCHAR
STARTCHAR u00A6
ENCODING 166
SWIDTH 1332 0
DWIDTH 16 0
BBX 16 28 0 -8
BITMAP
0000
0000
03C0
03C0
03C0
03C0
03C0
03C0
03C0
03C0
0000
0000
0000
0000
0000
0000
03C0
03C0
03C0
03C0
03C0
03C0
03C0
03C0
0000
0000
0000
0000
ENDCHAR
STARTCHAR u266B
ENCODING 9835
SWIDTH 1332 0
DWIDTH 16 0
BBX 16 28 0 -8
BITMAP
0000
0000
0000
0000
3FFF
3FFF
3C0F
3C0F
3FFF
3FFF
3C0F
3C0F
3C0F
3C0F
3C0F
3C0F
3C3F
3C3F
FC3F
FC3F
FC3C
FC3C
F000
F000
0000
0000
0000
0000
ENDCHAR
STARTCHAR u0058
ENCODING 88
SWIDTH 1332 0
DWIDTH 16 0
BBX 16 28 0 -8
BITMAP
0000
0000
0000
0000
3C3C
3C3C
3C3C
3C3C
3C3C
3C3C
0FF0
0FF0
03C0
03C0
0FF0
0FF0
3C3C
3C3C
3C3C
3C3C
3C3C
3C3C
0000
0000
0000
0000
0000
0000
ENDCHAR
STARTCHAR u0074
ENCODING 116
SWIDTH 1332 0
DWIDTH 16 0
BBX 16 28 0 -8
BITMAP
0000
0000
0000
0000
00C0
00C0
03C0
03C0
03C0
03C0
3FFC
3FFC
03C0
03C0
03C0
03C0
03C0
03C0
03CF
03CF
00FC
00FC
0000
0000
0000
0000
0000
0000
ENDCHAR
STARTCHAR u21A8
ENCODING 8616
SWIDTH 1332 0
DWIDTH 16 0
BBX 16 28 0 -8
BITMAP
0000
0000
0000
0000
03C0
03C0
0FF0
0FF0
3FFC
3FFC
03C0
03C0
03C0
03C0
03C0
03C0
3FFC
3FFC
0FF0
0FF0
03C0
03C0
3FFC
3FFC
0000
0000
0000
0000
ENDCHAR
STARTCHAR u0064
ENCODING 100
SWIDTH 1332 0
DWIDTH 16 0
BBX 16 28 0 -8
BITMAP
0000
0000
0000
0000
00FC
00FC
003C
003C
003C
003C
03FC
03FC
0F3C
0F3C
3C3C
3C3C
3C3C
3C3C
3C3C
3C3C
0FCF
0FCF
0000
0000
0000
0000
0000
0000
ENDCHAR
STARTCHAR u05E0
ENCODING 1504
SWIDTH 1332 0
DWIDTH 16 0
BBX 16 28 0 -8
BITMAP
0000
0000
0000
0000
0000
0000
03F0
03F0
003C
003C
003C
003C
003C
003C
003C
003C
003C
003C
003C
003C
0FFC
0FFC
0000
0000
0000
0000
0000
0000
ENDCHAR
STARTCHAR u0078
ENCODING 120
SWIDTH 1332 0
DWIDTH 16 0
BBX 16 28 0 -8
BITMAP
0000
0000
0000
0000
0000
0000
0000
0000
0000
0000
3C0F
3C0F
0F3C
0F3C
03F0
03F0
03F0
03F0
0F3C
0F3C
3C0F
3C0F
0000
0000
0000
0000
0000
0000
ENDCHAR
STARTCHAR u0028
ENCODING 40
SWIDTH 1332 0
DWIDTH 16 0
BBX 16 28 0 -8
BITMAP
0000
0000
0000
0000
00F0
00F0
03C0
03C0
0F00
0F00
0F00
0F00
0F00
0F00
0F00
0F00
0F00
0F00
03C0
03C0
00F0
00F0
0000
0000
0000
0000
0000
0000
ENDCHAR
STARTCHAR u004B
ENCODING 75
SWIDTH 1332 0
DWIDTH 16 0
BBX 16 28 0 -8
BITMAP
0000
0000
0000
0000
3F0F
3F0F
0F0F
0F0F
0F3C
0F3C
0F3C
0F3C
0FF0
0FF0
0F3C
0F3C
0F3C
0F3C
0F0F
0F0F
3F0F
3F0F
0000
0000
0000
0000
0000
0000
ENDCHAR
STARTCHAR u0053
ENCODING 83
SWIDTH 1332 0
DWIDTH 16 0
BBX 16 28 0 -8
BITMAP
0000
0000
0000
0000
0FFC
0FFC
3C0F
3C0F
3C0F
3C0F
0F00
0F00
03F0
03F0
003C
003C
3C0F
3C0F
3C0F
3C0F
0FFC
0FFC
0000
0000
0000
0000
0000
0000
ENDCHAR
STARTCHAR u2194
ENCODING 8596
SWIDTH 1332 0
DWIDTH 16 0
BBX 16 28 0 -8
BITMAP
0000
0000
0000
0000
0000
0000
0000
0000
0C30
0C30
3C3C
3C3C
FFFF
FFFF
3C3C
3C3C
0C30
0C30
0000
0000
0000
0000
0000
0000
0000
0000
0000
0000
ENDCHAR
STARTCHAR u003B
ENCODING 59
SWIDTH 1332 0
DWIDTH 16 0
BBX 16 28 0 -8
BITMAP
0000
0000
0000
0000
0000
0000
03C0
03C0
03C0
03C0
0000
0000
0000
0000
0000
0000
03C0
03C0
03C0
03C0
0F00
0F00
0000
0000
0000
0000
0000
0000
ENDCHAR
STARTCHAR u00D7
ENCODING 215
SWIDTH 1332 0
DWIDTH 16 0
BBX 16 28 0 -8
BITMAP
0000
0000
0000
0000
0000
0000
0000
0000
0000
0000
F03C
F03C
3CF0
3CF0
0FC0
0FC0
0FC0
0FC0
3CF0
3CF0
F03C
F03C
0000
0000
0000
0000
0000
0000
ENDCHAR
STARTCHAR u00B1
ENCODING 177
SWIDTH 1332 0
DWIDTH 16 0
BBX 16 28 0 -8
BITMAP
0000
0000
0000
0000
0000
0000
03C0
03C0
03C0
03C0
3FFC
3FFC
03C0
03C0
03C0
03C0
0000
0000
0000
0000
3FFC
3FFC
0000
0000
0000
0000
0000
0000
ENDCHAR
STARTCHAR u05E8
ENCODING 1512
SWIDTH 1332 0
DWIDTH 16 0
BBX 16 28 0 -8
BITMAP
0000
0000
0000
0000
0000
0000
3FFC
3FFC
000F
000F
000F
000F
000F
000F
000F
000F
000F
000F
000F
000F
000F
000F
0000
0000
0000
0000
0000
0000
ENDCHAR
STARTCHAR u05D6
ENCODING 1494
SWIDTH 1332 0
DWIDTH 16 0
BBX 16 28 0 -8
BITMAP
0000
0000
0000
0000
0000
0000
3FFC
3FFC
03C0
03C0
03C0
03C0
03C0
03C0
00F0
00F0
00F0
00F0
03C0
03C0
0F00
0F00
0000
0000
0000
0000
0000
0000
ENDCHAR
STARTCHAR u0035
ENCODING 53
SWIDTH 1332 0
DWIDTH 16 0
BBX 16 28 0 -8
BITMAP
0000
0000
0000
0000
3FFF
3FFF
3C00
3C00
3C00
3C00
3C00
3C00
3FFC
3FFC
000F
000F
000F
000F
3C0F
3C0F
0FFC
0FFC
0000
0000
0000
0000
0000
0000
ENDCHAR
STARTCHAR u25BC
ENCODING 9660
SWIDTH 1332 0
DWIDTH 16 0
BBX 16 28 0 -8
BITMAP
0000
0000
0000
0000
0000
0000
3FFF
3FFF
3FFF
3FFF
0FFC
0FFC
0FFC
0FFC
03F0
03F0
03F0
03F0
00C0
00C0
0000
0000
0000
0000
0000
0000
0000
0000
ENDCHAR
STARTCHAR u05D4
ENCODING 1492
SWIDTH 1332 0
DWIDTH 16 0
BBX 16 28 0 -8
BITMAP
0000
0000
0000
0000
0000
0000
3FFC
3FFC
000F
000F
000F
000F
000F
000F
3C0F
3C0F
3C0F
3C0F
3C0F
3C0F
3C0F
3C0F
0000
0000
0000
0000
0000
0000
ENDCHAR
STARTCHAR u007A
ENCODING 122
SWIDTH 1332 0
DWIDTH 16 0
BBX 16 28 0 -8
BITMAP
0000
0000
0000
0000
0000
0000
0000
0000
0000
0000
3FFF
3FFF
3C3C
3C3C
00F0
00F0
03C0
03C0
0F0F
0F0F
3FFF
3FFF
0000
0000
0000
0000
0000
0000
ENDCHAR
STARTCHAR u203C
ENCODING 8252
SWIDTH 1332 0
DWIDTH 16 0
BBX 16 28 0 -8
BITMAP
0000
0000
0000
0000
0F0F
0F0F
0F0F
0F0F
0F0F
0F0F
0F0F
0F0F
0F0F
0F0F
0F0F
0F0F
0000
0000
0F0F
0F0F
0F0F
0F0F
0000
0000
0000
0000
0000
0000
ENDCHAR
STARTCHAR u002A
ENCODING 42
SWIDTH 1332 0
DWIDTH 16 0
BBX 16 28 0 -8
BITMAP
0000
0000
0000
0000
0000
0000
0000
0000
3C3C
3C3C
0FF0
0FF0
FFFF
FFFF
0FF0
0FF0
3C3C
3C3C
0000
0000
0000
0000
0000
0000
0000
0000
0000
0000
ENDCHAR
STARTCHAR u002E
ENCODING 46
SWIDTH 1332 0
DWIDTH 16 0
BBX 16 28 0 -8
BITMAP
0000
0000
0000
0000
0000
0000
0000
0000
0000
0000
0000
0000
0000
0000
0000
0000
0000
0000
03C0
03C0
03C0
03C0
0000
0000
0000
0000
0000
0000
ENDCHAR
STARTCHAR u0069
ENCODING 105
SWIDTH 1332 0
DWIDTH 16 0
BBX 16 28 0 -8
BITMAP
0000
0000
0000
0000
00F0
00F0
00F0
00F0
0000
0000
03F0
03F0
00F0
00F0
00F0
00F0
00F0
00F0
00F0
00F0
03FC
03FC
0000
0000
0000
0000
0000
0000
ENDCHAR
STARTCHAR u05EA
ENCODING 1514
SWIDTH 1332 0
DWIDTH 16 0
BBX 16 28 0 -8
BITMAP
0000
0000
0000
0000
0000
0000
3FFC
3FFC
0F0F
0F0F
0F0F
0F0F
0F0F
0F0F
0F0F
0F0F
0F0F
0F0F
0F0F
0F0F
3F0F
3F0F
0000
0000
0000
0000
0000
0000
ENDCHAR
STARTCHAR u0055
ENCODING 85
SWIDTH 1332 0
DWIDTH 16 0
BBX 16 28 0 -8
BITMAP
0000
0000
0000
0000
3C0F
3C0F
3C0F
3C0F
3C0F
3C0F
3C0F
3C0F
3C0F
3C0F
3C0F
3C0F
3C0F
3C0F
3C0F
3C0F
0FFC
0FFC
0000
0000
0000
0000
0000
0000
ENDCHAR
STARTCHAR u05D9
ENCODING 1497
SWIDTH 1332 0
DWIDTH 16 0
BBX 16 28 0 -8
BITMAP
0000
0000
0000
0000
0000
0000
0FF0
0FF0
003C
003C
003C
003C
003C
003C
00F0
00F0
0000
0000
0000
0000
0000
0000
0000
0000
0000
0000
0000
0000
ENDCHAR
STARTCHAR u00B9
ENCODING 185
SWIDTH 1332 0
DWIDTH 16 0
BBX 16 28 0 -8
BITMAP
0000
0000
03C0
03C0
0FC0
0FC0
03C0
03C0
03C0
03C0
03C0
03C0
0FF0
0FF0
0000
0000
0000
0000
0000
0000
0000
0000
0000
0000
0000
0000
0000
0000
ENDCHAR
STARTCHAR u0024
ENCODING 36
SWIDTH 1332 0
DWIDTH 16 0
BBX 16 28 0 -8
BITMAP
00F0
00F0
00F0
00F0
0FFC
0FFC
3C0F
3C0F
3C03
3C03
3C00
3C00
0FFC
0FFC
000F
000F
300F
300F
3C0F
3C0F
0FFC
0FFC
00F0
00F0
00F0
00F0
0000
0000
ENDCHAR
STARTCHAR u00B7
ENCODING 183
SWIDTH 1332 0
DWIDTH 16 0
BBX 16 28 0 -8
BITMAP
0000
0000
0000
0000
0000
0000
0000
0000
0000
0000
0000
0000
03C0
03C0
0000
0000
0000
0000
0000
0000
0000
0000
0000
0000
0000
0000
0000
0000
ENDCHAR
STARTCHAR u25B6
ENCODING 9654
SWIDTH 1332 0
DWIDTH 16 0
BBX 16 28 0 -8
BITMAP
0000
0000
0000
0000
3000
3000
3C00
3C00
3F00
3F00
3FF0
3FF0
3FFF
3FFF
3FF0
3FF0
3F00
3F00
3C00
3C00
3000
3000
0000
0000
0000
0000
0000
0000
ENDCHAR
STARTCHAR u005E
ENCODING 94
SWIDTH 1332 0
DWIDTH 16 0
BBX 16 28 0 -8
BITMAP
00C0
00C0
03F0
03F0
0F3C
0F3C
3C0F
3C0F
0000
0000
0000
0000
0000
0000
0000
0000
0000
0000
0000
0000
0000
0000
0000
0000
0000
0000
0000
0000
ENDCHAR
STARTCHAR u0033
ENCODING 51
SWIDTH 1332 0
DWIDTH 16 0
BBX 16 28 0 -8
BITMAP
0000
0000
0000
0000
0FFC
0FFC
3C0F
3C0F
000F
000F
000F
000F
03FC
03FC
000F
000F
000F
000F
3C0F
3C0F
0FFC
0FFC
0000
0000
0000
0000
0000
0000
ENDCHAR
STARTCHAR u006F
ENCODING 111
SWIDTH 1332 0
DWIDTH 16 0
BBX 16 28 0 -8
BITMAP
0000
0000
0000
0000
0000
0000
0000
0000
0000
0000
0FFC
0FFC
3C0F
3C0F
3C0F
3C0F
3C0F
3C0F
3C0F
3C0F
0FFC
0FFC
0000
0000
0000
0000
0000
0000
ENDCHAR
STARTCHAR u0026
ENCODING 38
SWIDTH 1332 0
DWIDTH 16 0
BBX 16 28 0 -8
BITMAP
0000
0000
0000
0000
03F0
03F0
0F3C
0F3C
0F3C
0F3C
03F0
03F0
0FCF
0FCF
3CFC
3CFC
3C3C
3C3C
3C3C
3C3C
0FCF
0FCF
0000
0000
0000
0000
0000
0000
ENDCHAR
STARTCHAR u0022
ENCODING 34
SWIDTH 1332 0
DWIDTH 16 0
BBX 16 28 0 -8
BITMAP
0000
0000
3C0F
3C0F
3C0F
3C0F
3C0F
3C0F
0C0C
0C0C
0000
0000
0000
0000
0000
0000
0000
0000
0000
0000
0000
0000
0000
0000
0000
0000
0000
0000
ENDCHAR
STARTCHAR u2319
ENCODING 8985
SWIDTH 1332 0
DWIDTH 16 0
BBX 16 28 0 -8
BITMAP
0000
0000
0000
0000
0000
0000
0000
0000
0000
0000
3C00
3C00
3C00
3C00
3C00
3C00
3FFF
3FFF
0000
0000
0000
0000
0000
0000
0000
0000
0000
0000
ENDCHAR
STARTCHAR u00A9
ENCODING 169
SWIDTH 1332 0
DWIDTH 16 0
BBX 16 28 0 -8
BITMAP
0000
0000
0000
0000
0000
0000
0FC0
0FC0
3030
3030
C3CC
C3CC
CC0C
CC0C
CC0C
CC0C
CC0C
CC0C
C3CC
C3CC
3030
3030
0FC0
0FC0
0000
0000
0000
0000
ENDCHAR
STARTCHAR u00A4
ENCODING 164
SWIDTH 1332 0
DWIDTH 16 0
BBX 16 28 0 -8
BITMAP
0000
0000
0000
0000
0000
0000
F03C
F03C
3FF0
3FF0
F03C
F03C
F03C
F03C
F03C
F03C
3FF0
3FF0
F03C
F03C
0000
0000
0000
0000
0000
0000
0000
0000
ENDCHAR
STARTCHAR u00AB
ENCODING 171
SWIDTH 1332 0
DWIDTH 16 0
BBX 16 28 0 -8
BITMAP
0000
0000
0000
0000
0000
0000
0000
0000
03CF
03CF
0F3C
0F3C
3CF0
3CF0
0F3C
0F3C
03CF
03CF
0000
0000
0000
0000
0000
0000
0000
0000
0000
0000
ENDCHAR
ENDFONT
